<svg width="140" height="32" viewBox="0 0 140 32" fill="none" xmlns="http://www.w3.org/2000/svg">
<path d="M16.6656 3.08713e-06C17.4687 -0.000317383 18.2708 0.0575992 19.0657 0.17332C23.0287 0.755691 26.6514 2.75739 29.2713 5.81233C31.8912 8.86726 33.3331 12.7713 33.3333 16.8103C33.3343 19.839 32.5237 22.8117 30.9871 25.4139C29.4506 28.016 27.2452 30.151 24.6043 31.593C24.512 31.6436 24.4189 31.693 24.3249 31.7411C24.2388 31.7874 24.1496 31.8275 24.0579 31.8611C23.7935 31.9537 23.5156 32.0007 23.2357 32C22.907 32 22.5814 31.9348 22.2776 31.8079C21.9739 31.6811 21.6979 31.4951 21.4654 31.2607C21.2329 31.0262 21.0485 30.7479 20.9227 30.4416C20.7968 30.1353 20.7321 29.8069 20.7321 29.4754C20.732 29.0253 20.8511 28.5835 21.077 28.1954C21.303 27.8074 21.6276 27.4872 22.0173 27.2681C22.054 27.2481 22.0955 27.2259 22.1356 27.2059C22.1407 27.2026 22.1455 27.2007 22.1506 27.1974C24.0185 26.1941 25.5805 24.6974 26.6695 22.8674C27.7585 21.0374 28.3334 18.9431 28.3326 16.8088C28.3343 15.0501 27.9443 13.3135 27.1913 11.7272C26.4383 10.1409 25.3417 8.74547 23.9823 7.64391C23.852 7.52055 23.7102 7.41018 23.5589 7.31431C23.5556 7.31098 23.5523 7.30764 23.549 7.30764C22.5711 6.67806 21.2028 6.63138 19.8834 7.59391C18.564 9.29157 18.9819 11.12 20.1335 12.0751C20.1702 12.1036 20.207 12.1321 20.2437 12.161C21.1883 12.9016 21.8856 13.916 22.2419 15.0679C22.5982 16.2198 22.5965 17.4541 22.2369 18.605C21.9833 19.4745 21.5256 20.2695 20.9027 20.9228C20.2798 21.5761 19.51 22.0684 18.6584 22.3581C17.7756 22.6761 16.8299 22.7757 15.9009 22.6485C14.972 22.5213 14.0869 22.1711 13.32 21.6271C12.5532 21.0832 11.9271 20.3615 11.4943 19.5228C11.0616 18.6841 10.8348 17.7528 10.8331 16.8074C10.8319 15.9104 11.0347 15.0251 11.426 14.2196C11.8173 13.4141 12.3865 12.7098 13.09 12.161C13.1267 12.1325 13.1635 12.104 13.1983 12.0751C13.7147 11.6426 14.0708 11.0466 14.2088 10.3842C14.3468 9.72167 14.2586 9.03159 13.9585 8.42608C13.6987 7.85119 13.2386 7.39255 12.6655 7.13728C12.2094 6.92014 11.7066 6.82183 11.2031 6.85133C10.6995 6.88084 10.2114 7.03722 9.78327 7.30616C9.77997 7.30616 9.77666 7.30949 9.77336 7.31282C9.62631 7.40568 9.48846 7.51258 9.36171 7.63205C7.99902 8.73363 6.89944 10.1302 6.14436 11.7184C5.38928 13.3066 4.99804 15.0457 4.9996 16.807C4.99883 18.9412 5.57372 21.0355 6.66272 22.8655C7.75171 24.6955 9.31378 26.1923 11.1816 27.1955C11.2268 27.2174 11.2701 27.2407 11.3149 27.2659C11.7422 27.5062 12.0904 27.8673 12.3166 28.3048C12.5427 28.7423 12.637 29.2371 12.5877 29.7279C12.5272 30.307 12.2712 30.8475 11.8626 31.2588C11.454 31.6701 10.9175 31.9272 10.3433 31.987C9.9781 32.0237 9.6094 31.979 9.2633 31.8559C9.17708 31.8246 9.09304 31.7875 9.01176 31.7448C8.92363 31.6992 8.83574 31.6524 8.7481 31.6045C8.74553 31.6024 8.74269 31.6006 8.73965 31.5993C6.09581 30.1582 3.88765 28.0228 2.34908 25.4192C0.810519 22.8156 -0.00116835 19.8408 5.96296e-07 16.8099C0.000230118 12.7709 1.44214 8.86689 4.06201 5.81196C6.68188 2.75702 10.3046 0.755319 14.2677 0.172948C15.0618 0.0574544 15.8632 -0.000336386 16.6656 3.08713e-06Z" fill="#E6EDEF"/>
<path d="M46.6827 11.2538C45.3194 11.2538 44.2638 11.775 43.516 12.8173C42.7681 13.8517 42.3942 15.2967 42.3942 17.1523C42.3942 21.0135 43.8237 22.9442 46.6827 22.9442C47.8823 22.9442 49.3352 22.6402 51.0412 22.0322V25.1117C49.639 25.7039 48.0732 26 46.3438 26C43.8588 26 41.958 25.238 40.6415 23.7141C39.3249 22.1822 38.6667 19.987 38.6667 17.1286C38.6667 15.3283 38.99 13.753 39.6365 12.4027C40.2831 11.0446 41.2101 10.0062 42.4176 9.28766C43.6328 8.56121 45.0545 8.19798 46.6827 8.19798C48.3419 8.19798 50.009 8.60464 51.6839 9.41795L50.5154 12.4027C49.8766 12.0948 49.2339 11.8263 48.5873 11.5973C47.9408 11.3683 47.3059 11.2538 46.6827 11.2538Z" fill="#E6EDEF"/>
<path d="M63.6611 25.7631L63.182 24.0694H62.9951C62.6134 24.6853 62.072 25.163 61.3709 25.5025C60.6697 25.8342 59.8713 26 58.9754 26C57.4408 26 56.2839 25.5855 55.5049 24.7564C54.7259 23.9194 54.3364 22.7191 54.3364 21.1557V12.5212H57.9004V20.2555C57.9004 21.211 58.0679 21.9295 58.4028 22.4112C58.7378 22.885 59.2714 23.1218 60.0037 23.1218C61.0008 23.1218 61.7214 22.7862 62.1654 22.1151C62.6095 21.436 62.8315 20.3147 62.8315 18.7513V12.5212H66.3955V25.7631H63.6611Z" fill="#E6EDEF"/>
<path d="M73.6987 25.7631H70.1347V7.33334H73.6987V25.7631Z" fill="#E6EDEF"/>
<path d="M82.9533 23.1218C83.5765 23.1218 84.3243 22.9837 85.1968 22.7073V25.3959C84.3087 25.7987 83.2181 26 81.925 26C80.4994 26 79.4594 25.6368 78.805 24.9103C78.1585 24.176 77.8352 23.0784 77.8352 21.6176V15.2335H76.1292V13.7056L78.0923 12.4975L79.1205 9.70221H81.3991V12.5212H85.0566V15.2335H81.3991V21.6176C81.3991 22.1309 81.5394 22.5099 81.8198 22.7547C82.108 22.9994 82.4859 23.1218 82.9533 23.1218Z" fill="#E6EDEF"/>
<path d="M97.1039 25.7631L96.6249 24.0694H96.4379C96.0562 24.6853 95.5148 25.163 94.8137 25.5025C94.1125 25.8342 93.3141 26 92.4182 26C90.8836 26 89.7267 25.5855 88.9477 24.7564C88.1687 23.9194 87.7792 22.7191 87.7792 21.1557V12.5212H91.3432V20.2555C91.3432 21.211 91.5107 21.9295 91.8456 22.4112C92.1806 22.885 92.7142 23.1218 93.4465 23.1218C94.4436 23.1218 95.1642 22.7862 95.6082 22.1151C96.0523 21.436 96.2743 20.3147 96.2743 18.7513V12.5212H99.8383V25.7631H97.1039Z" fill="#E6EDEF"/>
<path d="M110.869 12.2724C111.352 12.2724 111.753 12.308 112.073 12.379L111.804 15.7665C111.516 15.6875 111.165 15.6481 110.752 15.6481C109.615 15.6481 108.727 15.9442 108.088 16.5364C107.457 17.1286 107.141 17.9577 107.141 19.0237V25.7631H103.577V12.5212H106.277L106.803 14.7479H106.978C107.383 14.0057 107.928 13.4095 108.614 12.9594C109.307 12.5014 110.059 12.2724 110.869 12.2724Z" fill="#E6EDEF"/>
<path d="M119.855 14.8426C119.099 14.8426 118.507 15.0874 118.079 15.577C117.65 16.0587 117.405 16.7456 117.343 17.6379H122.344C122.328 16.7456 122.098 16.0587 121.654 15.577C121.21 15.0874 120.611 14.8426 119.855 14.8426ZM120.357 26C118.254 26 116.61 25.4117 115.426 24.2352C114.242 23.0587 113.65 21.3926 113.65 19.2369C113.65 17.0181 114.195 15.3046 115.286 14.0965C116.384 12.8804 117.9 12.2724 119.831 12.2724C121.678 12.2724 123.115 12.8054 124.143 13.8714C125.172 14.9374 125.686 16.41 125.686 18.2894V20.0423H117.261C117.3 21.0688 117.6 21.8703 118.161 22.4467C118.721 23.0231 119.508 23.3113 120.521 23.3113C121.308 23.3113 122.052 23.2284 122.753 23.0626C123.454 22.8968 124.186 22.6323 124.95 22.269V25.0643C124.326 25.3802 123.66 25.6131 122.951 25.7631C122.243 25.921 121.378 26 120.357 26Z" fill="#E6EDEF"/>
<path d="M132.72 26C131.186 26 129.978 25.3959 129.098 24.1878C128.225 22.9797 127.789 21.3057 127.789 19.1658C127.789 16.9944 128.233 15.3046 129.121 14.0965C130.017 12.8804 131.248 12.2724 132.814 12.2724C134.457 12.2724 135.712 12.9199 136.576 14.2149H136.693C136.514 13.2279 136.424 12.3474 136.424 11.5736V7.33334H140V25.7631H137.266L136.576 24.0457H136.424C135.614 25.3486 134.379 26 132.72 26ZM133.97 23.1218C134.882 23.1218 135.548 22.8534 135.969 22.3164C136.397 21.7795 136.631 20.8675 136.67 19.5804V19.1895C136.67 17.7682 136.452 16.7496 136.015 16.1337C135.587 15.5178 134.886 15.2098 133.912 15.2098C133.117 15.2098 132.498 15.5533 132.054 16.2403C131.618 16.9194 131.4 17.9103 131.4 19.2132C131.4 20.5161 131.622 21.4952 132.066 22.1506C132.51 22.7981 133.145 23.1218 133.97 23.1218Z" fill="#E6EDEF"/>
</svg>
