<svg width="96" height="96" viewBox="0 0 96 96" fill="none" xmlns="http://www.w3.org/2000/svg">
<path d="M88.0001 23.1999C84.9934 24.5042 81.8138 25.3665 78.5601 25.7599C81.9928 23.7091 84.5652 20.483 85.8001 16.6799C82.5743 18.6001 79.0431 19.953 75.3601 20.6799C72.8982 18.0101 69.6199 16.233 66.0393 15.6273C62.4587 15.0215 58.7782 15.6213 55.5752 17.3326C52.3722 19.0439 49.8278 21.77 48.341 25.0832C46.8543 28.3964 46.5092 32.1094 47.3601 35.6399C40.8378 35.31 34.4578 33.6117 28.6347 30.6553C22.8115 27.6989 17.6754 23.5506 13.5601 18.4799C12.1166 21.0005 11.3581 23.8552 11.3601 26.7599C11.3549 29.4574 12.0169 32.1143 13.2871 34.4941C14.5572 36.8739 16.3961 38.9027 18.6401 40.3999C16.032 40.3289 13.4796 39.6291 11.2001 38.3599V38.5599C11.2196 42.3394 12.544 45.9962 14.9493 48.9117C17.3546 51.8272 20.6931 53.8224 24.4001 54.5599C22.9731 54.9941 21.4916 55.2231 20.0001 55.2399C18.9676 55.2278 17.9378 55.1342 16.9201 54.9599C17.9757 58.2111 20.0186 61.0524 22.7644 63.0885C25.5102 65.1246 28.8224 66.2541 32.2401 66.3199C26.4689 70.8609 19.3436 73.3393 12.0001 73.3599C10.663 73.3642 9.327 73.2841 8.00006 73.1199C15.4978 77.9609 24.2353 80.5308 33.1601 80.5199C39.3188 80.5838 45.4286 79.4199 51.1325 77.0962C56.8364 74.7724 62.0202 71.3354 66.3809 66.9858C70.7416 62.6363 74.1919 57.4614 76.5303 51.7635C78.8687 46.0655 80.0482 39.9588 80.0001 33.7999C80.0001 33.1199 80.0001 32.3999 80.0001 31.6799C83.1389 29.3391 85.846 26.4696 88.0001 23.1999Z" fill="#FFC857"/>
</svg>
