<svg width="96" height="96" viewBox="0 0 96 96" fill="none" xmlns="http://www.w3.org/2000/svg">
<path d="M47.9768 8C40.0656 8 32.332 10.346 25.754 14.7412C19.176 19.1365 14.0491 25.3836 11.0216 32.6927C7.99414 40.0017 7.202 48.0444 8.74541 55.8036C10.2888 63.5629 14.0985 70.6902 19.6926 76.2843C25.2867 81.8784 32.414 85.688 40.1732 87.2314C47.9325 88.7748 55.9751 87.9827 63.2842 84.9552C70.5932 81.9277 76.8403 76.8008 81.2356 70.2228C85.6309 63.6448 87.9768 55.9113 87.9768 48C87.9773 42.747 86.9429 37.5454 84.9329 32.6922C82.9229 27.8389 79.9765 23.4292 76.2621 19.7148C72.5476 16.0003 68.1379 13.054 63.2847 11.0439C58.4315 9.0339 53.2298 7.99956 47.9768 8ZM60.6949 68.6099C60.5451 68.9832 60.3173 69.3202 60.0267 69.5983C59.7361 69.8764 59.3894 70.0891 59.0099 70.2223C58.6303 70.3554 58.2267 70.4059 57.8261 70.3703C57.4254 70.3347 57.037 70.2139 56.6869 70.0159L45.8282 61.5784L38.8589 68.008C38.6972 68.1275 38.508 68.2044 38.3088 68.2316C38.1096 68.2588 37.9067 68.2355 37.7189 68.1638L39.0549 56.2099L39.0977 56.2438L39.125 56.0078C39.125 56.0078 58.665 38.2178 59.461 37.4598C60.2669 36.7038 60.001 36.5398 60.001 36.5398C60.0469 35.6177 58.5549 36.5398 58.5549 36.5398L32.6648 53.196L21.8829 49.524C21.8829 49.524 20.2269 48.93 20.0709 47.624C19.9069 46.328 21.9368 45.624 21.9368 45.624L64.8048 28.594C64.8048 28.594 68.3288 27.0239 68.3288 29.624L60.6949 68.6099Z" fill="#FFC857"/>
</svg>
