<svg width="64" height="64" viewBox="0 0 64 64" fill="none" xmlns="http://www.w3.org/2000/svg">
<path d="M45.3221 24.7754C44.8225 24.2788 44.1466 24 43.4421 24C42.7376 24 42.0618 24.2788 41.5621 24.7754L31.9888 34.2154L22.5488 24.7754C22.0492 24.2788 21.3733 24 20.6688 24C19.9643 24 19.2884 24.2788 18.7888 24.7754C18.5389 25.0233 18.3405 25.3183 18.2051 25.6432C18.0697 25.9682 18 26.3167 18 26.6688C18 27.0208 18.0697 27.3694 18.2051 27.6943C18.3405 28.0193 18.5389 28.3142 18.7888 28.5621L30.0955 39.8688C30.3434 40.1187 30.6383 40.3171 30.9633 40.4525C31.2882 40.5879 31.6368 40.6576 31.9888 40.6576C32.3408 40.6576 32.6894 40.5879 33.0143 40.4525C33.3393 40.3171 33.6342 40.1187 33.8821 39.8688L45.3221 28.5621C45.5721 28.3142 45.7705 28.0193 45.9058 27.6943C46.0412 27.3694 46.1109 27.0208 46.1109 26.6688C46.1109 26.3167 46.0412 25.9682 45.9058 25.6432C45.7705 25.3183 45.5721 25.0233 45.3221 24.7754Z" fill="#E6EDEF"/>
</svg>
