<svg width="32" height="32" viewBox="0 0 32 32" fill="none" xmlns="http://www.w3.org/2000/svg">
<path fill-rule="evenodd" clip-rule="evenodd" d="M22.9064 5.88002C22.9064 4.10669 24.3464 2.66669 26.1197 2.66669C27.8931 2.66669 29.3331 4.10669 29.3331 5.88002C29.3331 7.65335 27.8931 9.09335 26.1197 9.09335C24.3464 9.09335 22.9064 7.65335 22.9064 5.88002ZM17.7729 19.6791L21.6263 14.7071L21.5729 14.7338C21.7863 14.4404 21.8263 14.0671 21.6796 13.7338C21.5343 13.4004 21.2129 13.1738 20.8676 13.1471C20.5063 13.1071 20.1476 13.2671 19.9329 13.5604L16.7076 17.7338L13.0129 14.8271C12.7863 14.6538 12.5196 14.5858 12.2529 14.6138C11.9876 14.6538 11.7476 14.7991 11.5863 15.0124L7.64093 20.1471L7.5596 20.2671C7.33293 20.6924 7.4396 21.2391 7.8396 21.5338C8.02627 21.6538 8.22627 21.7338 8.45293 21.7338C8.76093 21.7471 9.05293 21.5858 9.2396 21.3338L12.5863 17.0258L16.3863 19.8804L16.5063 19.9591C16.9329 20.1858 17.4663 20.0804 17.7729 19.6791ZM20.5996 5.04042C20.5463 5.37375 20.5196 5.70709 20.5196 6.04042C20.5196 9.04042 22.9463 11.4658 25.9329 11.4658C26.2663 11.4658 26.5863 11.4271 26.9196 11.3738V22.1324C26.9196 26.6538 24.2529 29.3338 19.7196 29.3338H9.8676C5.33293 29.3338 2.66627 26.6538 2.66627 22.1324V12.2671C2.66627 7.73375 5.33293 5.04042 9.8676 5.04042H20.5996Z" fill="#084C61"/>
</svg>
