<svg width="96" height="96" viewBox="0 0 96 96" fill="none" xmlns="http://www.w3.org/2000/svg">
<path d="M83.6001 8H12.4001C11.2331 8 10.114 8.46357 9.28879 9.28873C8.46363 10.1139 8.00006 11.233 8.00006 12.4V83.6C8.00006 84.1778 8.11387 84.75 8.33499 85.2838C8.55611 85.8177 8.88021 86.3027 9.28879 86.7113C9.69737 87.1199 10.1824 87.444 10.7163 87.6651C11.2501 87.8862 11.8222 88 12.4001 88H50.7201V57H40.3201V45H50.7201V36C50.5046 33.887 50.7541 31.7525 51.4509 29.7462C52.1478 27.7398 53.2751 25.9102 54.7539 24.3856C56.2327 22.8611 58.0272 21.6786 60.0114 20.921C61.9956 20.1633 64.1215 19.849 66.2401 20C69.3534 19.9808 72.4652 20.1411 75.5601 20.48V31.28H69.2001C64.1601 31.28 63.2001 33.68 63.2001 37.16V44.88H75.2001L73.6401 56.88H63.2001V88H83.6001C84.1779 88 84.75 87.8862 85.2839 87.6651C85.8177 87.444 86.3028 87.1199 86.7113 86.7113C87.1199 86.3027 87.444 85.8177 87.6651 85.2838C87.8863 84.75 88.0001 84.1778 88.0001 83.6V12.4C88.0001 11.8222 87.8863 11.25 87.6651 10.7162C87.444 10.1824 87.1199 9.69731 86.7113 9.28873C86.3028 8.88015 85.8177 8.55605 85.2839 8.33493C84.75 8.11381 84.1779 8 83.6001 8Z" fill="#FFC857"/>
</svg>
