<svg width="96" height="96" viewBox="0 0 96 96" fill="none" xmlns="http://www.w3.org/2000/svg">
<path d="M66.4 56.0004C65.6 55.6004 60.4 53.2004 59.6 52.8004C58.8 52.4004 58 52.4004 57.2 53.2004C56.4 54.0004 54.8 56.4004 54 57.2004C53.6 58.0004 52.8 58.0004 52 57.6004C49.2 56.4004 46.4 54.8004 44 52.8004C42 50.8004 40 48.4004 38.4 46.0004C38 45.2004 38.4 44.4004 38.8 44.0004C39.2 43.6004 39.6 42.8004 40.4 42.4004C40.8 42.0004 41.2 41.2004 41.2 40.8004C41.6 40.4004 41.6 39.6004 41.2 39.2004C40.8 38.8004 38.8 34.0004 38 32.0004C37.6 29.2004 36.8 29.2004 36 29.2004C35.6 29.2004 34.8 29.2004 34 29.2004C33.2 29.2004 32 30.0004 31.6 30.4004C29.2 32.8004 28 35.6004 28 38.8004C28.4 42.4004 29.6 46.0004 32 49.2004C36.4 55.6004 42 60.8004 48.8 64.0004C50.8 64.8004 52.4 65.6004 54.4 66.0004C56.4 66.8004 58.4 66.8004 60.8 66.4004C63.6 66.0004 66 64.0004 67.6 61.6004C68.4 60.0004 68.4 58.4004 68 56.8004C68 56.8004 67.2 56.4004 66.4 56.0004ZM76.4 19.6004C60.8 4.00039 35.6 4.00039 20 19.6004C7.20005 32.4004 4.80005 52.0004 13.6 67.6004L8.00005 88.0004L29.2 82.4004C35.2 85.6004 41.6 87.2004 48 87.2004C70 87.2004 87.6 69.6004 87.6 47.6004C88 37.2004 83.6 27.2004 76.4 19.6004ZM65.6 75.6004C60.4 78.8004 54.4 80.8004 48 80.8004C42 80.8004 36.4 79.2004 31.2 76.4004L30 75.6004L17.6 78.8004L20.8 66.8004L20 65.6004C10.4 49.6004 15.2 29.6004 30.8 19.6004C46.4 9.60039 66.4 14.8004 76 30.0004C85.6 45.6004 81.2 66.0004 65.6 75.6004Z" fill="#FFC857"/>
</svg>
