<svg width="32" height="32" viewBox="0 0 32 32" fill="none" xmlns="http://www.w3.org/2000/svg">
<path fill-rule="evenodd" clip-rule="evenodd" d="M21.8812 3.69151L21.8825 4.69101C25.5554 4.97887 27.9815 7.48161 27.9855 11.3197L28 22.5541C28.0052 26.7386 25.3763 29.3133 21.1624 29.32L10.8692 29.3333C6.68159 29.3387 4.01976 26.7027 4.01449 22.5061L4.00001 11.4036C3.99474 7.54025 6.33537 5.04417 10.0082 4.707L10.0069 3.7075C10.0056 3.12113 10.44 2.68002 11.0193 2.68002C11.5985 2.67868 12.0329 3.11846 12.0342 3.70484L12.0355 4.6377L19.8552 4.62704L19.8539 3.69418C19.8525 3.1078 20.287 2.66802 20.8662 2.66669C21.4323 2.66536 21.8799 3.10514 21.8812 3.69151ZM6.02864 11.8154L25.9595 11.7888V11.3224C25.9029 8.45712 24.4653 6.95388 21.8851 6.72999L21.8864 7.75614C21.8864 8.32919 21.4402 8.78363 20.8741 8.78363C20.2949 8.78496 19.8591 8.33185 19.8591 7.75881L19.8578 6.67935L12.0382 6.69001L12.0395 7.76814C12.0395 8.34251 11.6064 8.79562 11.0272 8.79562C10.4479 8.79695 10.0122 8.34518 10.0122 7.7708L10.0109 6.74465C7.44381 7.00185 6.02338 8.51043 6.02732 11.401L6.02864 11.8154ZM20.3199 17.8724V17.8871C20.333 18.5001 20.8333 18.9652 21.4402 18.9519C22.0326 18.9372 22.5052 18.4295 22.492 17.8164C22.4644 17.2301 21.9891 16.7516 21.398 16.753C20.7925 16.7663 20.3186 17.2594 20.3199 17.8724ZM21.4073 23.8561C20.8017 23.8428 20.3133 23.3377 20.312 22.7246C20.2988 22.1116 20.7846 21.6039 21.3901 21.5892H21.4033C22.022 21.5892 22.5236 22.0943 22.5236 22.7206C22.5249 23.347 22.0247 23.8547 21.4073 23.8561ZM14.8962 17.8937C14.9225 18.5068 15.4241 18.9852 16.0296 18.9585C16.622 18.9305 17.0946 18.4241 17.0683 17.8111C17.0538 17.2114 16.5667 16.745 15.9743 16.7463C15.3688 16.773 14.8948 17.2807 14.8962 17.8937ZM16.0349 23.7961C15.4293 23.8228 14.9291 23.3443 14.9014 22.7313C14.9014 22.1183 15.374 21.6119 15.9796 21.5839C16.572 21.5826 17.0604 22.049 17.0735 22.6473C17.1012 23.2617 16.6273 23.7681 16.0349 23.7961ZM9.47244 17.9404C9.49877 18.5534 10.0003 19.0332 10.6059 19.0052C11.1983 18.9785 11.6709 18.4708 11.6432 17.8577C11.6301 17.2581 11.143 16.7916 10.5493 16.793C9.94373 16.8196 9.47112 17.3273 9.47244 17.9404ZM10.6112 23.8028C10.0056 23.8308 9.50535 23.351 9.47771 22.738C9.47639 22.1249 9.95031 21.6172 10.5559 21.5905C11.1483 21.5892 11.6367 22.0556 11.6498 22.6553C11.6775 23.2684 11.2049 23.7761 10.6112 23.8028Z" fill="#FFC857"/>
</svg>
