<svg width="48" height="48" viewBox="0 0 48 48" fill="none" xmlns="http://www.w3.org/2000/svg">
<path d="M6 16H42C42.5304 16 43.0391 15.7893 43.4142 15.4142C43.7893 15.0391 44 14.5304 44 14C44 13.4696 43.7893 12.9609 43.4142 12.5858C43.0391 12.2107 42.5304 12 42 12H6C5.46957 12 4.96086 12.2107 4.58579 12.5858C4.21071 12.9609 4 13.4696 4 14C4 14.5304 4.21071 15.0391 4.58579 15.4142C4.96086 15.7893 5.46957 16 6 16ZM42 32H6C5.46957 32 4.96086 32.2107 4.58579 32.5858C4.21071 32.9609 4 33.4696 4 34C4 34.5304 4.21071 35.0391 4.58579 35.4142C4.96086 35.7893 5.46957 36 6 36H42C42.5304 36 43.0391 35.7893 43.4142 35.4142C43.7893 35.0391 44 34.5304 44 34C44 33.4696 43.7893 32.9609 43.4142 32.5858C43.0391 32.2107 42.5304 32 42 32ZM42 22H6C5.46957 22 4.96086 22.2107 4.58579 22.5858C4.21071 22.9609 4 23.4696 4 24C4 24.5304 4.21071 25.0391 4.58579 25.4142C4.96086 25.7893 5.46957 26 6 26H42C42.5304 26 43.0391 25.7893 43.4142 25.4142C43.7893 25.0391 44 24.5304 44 24C44 23.4696 43.7893 22.9609 43.4142 22.5858C43.0391 22.2107 42.5304 22 42 22Z" fill="#E6EDEF"/>
</svg>
